<mxfile host="app.diagrams.net" modified="2023-03-25T14:10:44.734Z" agent="Mozilla/5.0 (Windows NT 10.0; Win64; x64) AppleWebKit/537.36 (KHTML, like Gecko) Chrome/111.0.0.0 Safari/537.36" etag="5B8ca7konRY5NdDCBeP6" version="21.1.1" type="github">
  <diagram id="C5RBs43oDa-KdzZeNtuy" name="Page-1">
    <mxGraphModel dx="1478" dy="614" grid="1" gridSize="10" guides="1" tooltips="1" connect="1" arrows="1" fold="1" page="1" pageScale="1" pageWidth="827" pageHeight="1169" math="0" shadow="0">
      <root>
        <mxCell id="WIyWlLk6GJQsqaUBKTNV-0" />
        <mxCell id="WIyWlLk6GJQsqaUBKTNV-1" parent="WIyWlLk6GJQsqaUBKTNV-0" />
        <mxCell id="KfuObsglH7F92j2FWpLT-1" value="machine" style="swimlane;fontStyle=1;align=center;verticalAlign=top;childLayout=stackLayout;horizontal=1;startSize=26;horizontalStack=0;resizeParent=1;resizeParentMax=0;resizeLast=0;collapsible=1;marginBottom=0;whiteSpace=wrap;html=1;" vertex="1" parent="WIyWlLk6GJQsqaUBKTNV-1">
          <mxGeometry x="370" y="60" width="160" height="220" as="geometry" />
        </mxCell>
        <mxCell id="KfuObsglH7F92j2FWpLT-2" value="+ id: int" style="text;strokeColor=none;fillColor=none;align=left;verticalAlign=top;spacingLeft=4;spacingRight=4;overflow=hidden;rotatable=0;points=[[0,0.5],[1,0.5]];portConstraint=eastwest;whiteSpace=wrap;html=1;" vertex="1" parent="KfuObsglH7F92j2FWpLT-1">
          <mxGeometry y="26" width="160" height="26" as="geometry" />
        </mxCell>
        <mxCell id="KfuObsglH7F92j2FWpLT-3" value="" style="line;strokeWidth=1;fillColor=none;align=left;verticalAlign=middle;spacingTop=-1;spacingLeft=3;spacingRight=3;rotatable=0;labelPosition=right;points=[];portConstraint=eastwest;strokeColor=inherit;" vertex="1" parent="KfuObsglH7F92j2FWpLT-1">
          <mxGeometry y="52" width="160" height="8" as="geometry" />
        </mxCell>
        <mxCell id="KfuObsglH7F92j2FWpLT-4" value="+ switchOff(): void&lt;br&gt;+ switchOn(): void&lt;br&gt;+ getDes(): void&lt;br&gt;+ readTicketAmount(): void&lt;br&gt;+ getPayMethod(): payment&lt;br&gt;+ readCardSer(): void&lt;br&gt;+ cardInsert(): void&lt;br&gt;+ injectCard: card&lt;br&gt;+ QRshow(): void&lt;br&gt;+ createTic(): void" style="text;strokeColor=none;fillColor=none;align=left;verticalAlign=top;spacingLeft=4;spacingRight=4;overflow=hidden;rotatable=0;points=[[0,0.5],[1,0.5]];portConstraint=eastwest;whiteSpace=wrap;html=1;" vertex="1" parent="KfuObsglH7F92j2FWpLT-1">
          <mxGeometry y="60" width="160" height="160" as="geometry" />
        </mxCell>
        <mxCell id="KfuObsglH7F92j2FWpLT-5" value="userClient" style="swimlane;fontStyle=1;align=center;verticalAlign=top;childLayout=stackLayout;horizontal=1;startSize=26;horizontalStack=0;resizeParent=1;resizeParentMax=0;resizeLast=0;collapsible=1;marginBottom=0;whiteSpace=wrap;html=1;" vertex="1" parent="WIyWlLk6GJQsqaUBKTNV-1">
          <mxGeometry x="100" y="60" width="160" height="110" as="geometry" />
        </mxCell>
        <mxCell id="KfuObsglH7F92j2FWpLT-7" value="" style="line;strokeWidth=1;fillColor=none;align=left;verticalAlign=middle;spacingTop=-1;spacingLeft=3;spacingRight=3;rotatable=0;labelPosition=right;points=[];portConstraint=eastwest;strokeColor=inherit;" vertex="1" parent="KfuObsglH7F92j2FWpLT-5">
          <mxGeometry y="26" width="160" height="8" as="geometry" />
        </mxCell>
        <mxCell id="KfuObsglH7F92j2FWpLT-8" value="+ readDes(): void&lt;br&gt;+ readPayMethod(): void&lt;br&gt;+ disQRscan(QR qrc): void&lt;br&gt;+ dis(String msg): void" style="text;strokeColor=none;fillColor=none;align=left;verticalAlign=top;spacingLeft=4;spacingRight=4;overflow=hidden;rotatable=0;points=[[0,0.5],[1,0.5]];portConstraint=eastwest;whiteSpace=wrap;html=1;" vertex="1" parent="KfuObsglH7F92j2FWpLT-5">
          <mxGeometry y="34" width="160" height="76" as="geometry" />
        </mxCell>
        <mxCell id="KfuObsglH7F92j2FWpLT-9" value="" style="endArrow=diamondThin;endFill=1;endSize=24;html=1;rounded=0;entryX=-0.006;entryY=0.255;entryDx=0;entryDy=0;entryPerimeter=0;exitX=1;exitY=0.5;exitDx=0;exitDy=0;" edge="1" parent="WIyWlLk6GJQsqaUBKTNV-1" source="KfuObsglH7F92j2FWpLT-8" target="KfuObsglH7F92j2FWpLT-4">
          <mxGeometry width="160" relative="1" as="geometry">
            <mxPoint x="310" y="310" as="sourcePoint" />
            <mxPoint x="470" y="310" as="targetPoint" />
          </mxGeometry>
        </mxCell>
        <mxCell id="KfuObsglH7F92j2FWpLT-14" value="client" style="swimlane;fontStyle=1;align=center;verticalAlign=top;childLayout=stackLayout;horizontal=1;startSize=26;horizontalStack=0;resizeParent=1;resizeParentMax=0;resizeLast=0;collapsible=1;marginBottom=0;whiteSpace=wrap;html=1;" vertex="1" parent="WIyWlLk6GJQsqaUBKTNV-1">
          <mxGeometry x="100" y="290" width="160" height="140" as="geometry" />
        </mxCell>
        <mxCell id="KfuObsglH7F92j2FWpLT-15" value="- clientID: String&lt;br&gt;- clientName: String" style="text;strokeColor=none;fillColor=none;align=left;verticalAlign=top;spacingLeft=4;spacingRight=4;overflow=hidden;rotatable=0;points=[[0,0.5],[1,0.5]];portConstraint=eastwest;whiteSpace=wrap;html=1;" vertex="1" parent="KfuObsglH7F92j2FWpLT-14">
          <mxGeometry y="26" width="160" height="44" as="geometry" />
        </mxCell>
        <mxCell id="KfuObsglH7F92j2FWpLT-16" value="" style="line;strokeWidth=1;fillColor=none;align=left;verticalAlign=middle;spacingTop=-1;spacingLeft=3;spacingRight=3;rotatable=0;labelPosition=right;points=[];portConstraint=eastwest;strokeColor=inherit;" vertex="1" parent="KfuObsglH7F92j2FWpLT-14">
          <mxGeometry y="70" width="160" height="8" as="geometry" />
        </mxCell>
        <mxCell id="KfuObsglH7F92j2FWpLT-17" value="+ enterDes(): void&lt;br&gt;+ enterTicketAmount(): void&lt;br&gt;+ choosePayMethod(): void&lt;br&gt;" style="text;strokeColor=none;fillColor=none;align=left;verticalAlign=top;spacingLeft=4;spacingRight=4;overflow=hidden;rotatable=0;points=[[0,0.5],[1,0.5]];portConstraint=eastwest;whiteSpace=wrap;html=1;" vertex="1" parent="KfuObsglH7F92j2FWpLT-14">
          <mxGeometry y="78" width="160" height="62" as="geometry" />
        </mxCell>
        <mxCell id="KfuObsglH7F92j2FWpLT-19" value="" style="endArrow=none;html=1;rounded=0;entryX=0.454;entryY=1.033;entryDx=0;entryDy=0;entryPerimeter=0;exitX=0.5;exitY=0;exitDx=0;exitDy=0;" edge="1" parent="WIyWlLk6GJQsqaUBKTNV-1" source="KfuObsglH7F92j2FWpLT-14" target="KfuObsglH7F92j2FWpLT-8">
          <mxGeometry width="50" height="50" relative="1" as="geometry">
            <mxPoint x="370" y="340" as="sourcePoint" />
            <mxPoint x="420" y="290" as="targetPoint" />
          </mxGeometry>
        </mxCell>
        <mxCell id="KfuObsglH7F92j2FWpLT-20" value="ticket" style="swimlane;fontStyle=1;align=center;verticalAlign=top;childLayout=stackLayout;horizontal=1;startSize=26;horizontalStack=0;resizeParent=1;resizeParentMax=0;resizeLast=0;collapsible=1;marginBottom=0;whiteSpace=wrap;html=1;" vertex="1" parent="WIyWlLk6GJQsqaUBKTNV-1">
          <mxGeometry x="370" y="330" width="160" height="100" as="geometry" />
        </mxCell>
        <mxCell id="KfuObsglH7F92j2FWpLT-21" value="- amount: double" style="text;strokeColor=none;fillColor=none;align=left;verticalAlign=top;spacingLeft=4;spacingRight=4;overflow=hidden;rotatable=0;points=[[0,0.5],[1,0.5]];portConstraint=eastwest;whiteSpace=wrap;html=1;" vertex="1" parent="KfuObsglH7F92j2FWpLT-20">
          <mxGeometry y="26" width="160" height="34" as="geometry" />
        </mxCell>
        <mxCell id="KfuObsglH7F92j2FWpLT-22" value="" style="line;strokeWidth=1;fillColor=none;align=left;verticalAlign=middle;spacingTop=-1;spacingLeft=3;spacingRight=3;rotatable=0;labelPosition=right;points=[];portConstraint=eastwest;strokeColor=inherit;" vertex="1" parent="KfuObsglH7F92j2FWpLT-20">
          <mxGeometry y="60" width="160" height="8" as="geometry" />
        </mxCell>
        <mxCell id="KfuObsglH7F92j2FWpLT-23" value="+ getInfo(): void" style="text;strokeColor=none;fillColor=none;align=left;verticalAlign=top;spacingLeft=4;spacingRight=4;overflow=hidden;rotatable=0;points=[[0,0.5],[1,0.5]];portConstraint=eastwest;whiteSpace=wrap;html=1;" vertex="1" parent="KfuObsglH7F92j2FWpLT-20">
          <mxGeometry y="68" width="160" height="32" as="geometry" />
        </mxCell>
        <mxCell id="KfuObsglH7F92j2FWpLT-24" value="" style="endArrow=diamondThin;endFill=0;endSize=24;html=1;rounded=0;entryX=0;entryY=0.5;entryDx=0;entryDy=0;" edge="1" parent="WIyWlLk6GJQsqaUBKTNV-1" source="KfuObsglH7F92j2FWpLT-14" target="KfuObsglH7F92j2FWpLT-21">
          <mxGeometry width="160" relative="1" as="geometry">
            <mxPoint x="310" y="310" as="sourcePoint" />
            <mxPoint x="470" y="310" as="targetPoint" />
          </mxGeometry>
        </mxCell>
        <mxCell id="KfuObsglH7F92j2FWpLT-25" value="destination" style="swimlane;fontStyle=1;align=center;verticalAlign=top;childLayout=stackLayout;horizontal=1;startSize=26;horizontalStack=0;resizeParent=1;resizeParentMax=0;resizeLast=0;collapsible=1;marginBottom=0;whiteSpace=wrap;html=1;" vertex="1" parent="WIyWlLk6GJQsqaUBKTNV-1">
          <mxGeometry x="580" y="330" width="160" height="100" as="geometry" />
        </mxCell>
        <mxCell id="KfuObsglH7F92j2FWpLT-26" value="- read: String&lt;br&gt;- street: String&lt;br&gt;- ward: String&lt;br&gt;- district: String" style="text;strokeColor=none;fillColor=none;align=left;verticalAlign=top;spacingLeft=4;spacingRight=4;overflow=hidden;rotatable=0;points=[[0,0.5],[1,0.5]];portConstraint=eastwest;whiteSpace=wrap;html=1;" vertex="1" parent="KfuObsglH7F92j2FWpLT-25">
          <mxGeometry y="26" width="160" height="74" as="geometry" />
        </mxCell>
        <mxCell id="KfuObsglH7F92j2FWpLT-29" value="payment" style="swimlane;fontStyle=1;align=center;verticalAlign=top;childLayout=stackLayout;horizontal=1;startSize=26;horizontalStack=0;resizeParent=1;resizeParentMax=0;resizeLast=0;collapsible=1;marginBottom=0;whiteSpace=wrap;html=1;" vertex="1" parent="WIyWlLk6GJQsqaUBKTNV-1">
          <mxGeometry x="580" y="140" width="160" height="100" as="geometry" />
        </mxCell>
        <mxCell id="KfuObsglH7F92j2FWpLT-30" value="- id: int&lt;br&gt;- amount: double" style="text;strokeColor=none;fillColor=none;align=left;verticalAlign=top;spacingLeft=4;spacingRight=4;overflow=hidden;rotatable=0;points=[[0,0.5],[1,0.5]];portConstraint=eastwest;whiteSpace=wrap;html=1;" vertex="1" parent="KfuObsglH7F92j2FWpLT-29">
          <mxGeometry y="26" width="160" height="34" as="geometry" />
        </mxCell>
        <mxCell id="KfuObsglH7F92j2FWpLT-31" value="" style="line;strokeWidth=1;fillColor=none;align=left;verticalAlign=middle;spacingTop=-1;spacingLeft=3;spacingRight=3;rotatable=0;labelPosition=right;points=[];portConstraint=eastwest;strokeColor=inherit;" vertex="1" parent="KfuObsglH7F92j2FWpLT-29">
          <mxGeometry y="60" width="160" height="8" as="geometry" />
        </mxCell>
        <mxCell id="KfuObsglH7F92j2FWpLT-32" value="+ confirm(): boolean" style="text;strokeColor=none;fillColor=none;align=left;verticalAlign=top;spacingLeft=4;spacingRight=4;overflow=hidden;rotatable=0;points=[[0,0.5],[1,0.5]];portConstraint=eastwest;whiteSpace=wrap;html=1;" vertex="1" parent="KfuObsglH7F92j2FWpLT-29">
          <mxGeometry y="68" width="160" height="32" as="geometry" />
        </mxCell>
        <mxCell id="KfuObsglH7F92j2FWpLT-33" value="banking" style="swimlane;fontStyle=1;align=center;verticalAlign=top;childLayout=stackLayout;horizontal=1;startSize=26;horizontalStack=0;resizeParent=1;resizeParentMax=0;resizeLast=0;collapsible=1;marginBottom=0;whiteSpace=wrap;html=1;" vertex="1" parent="WIyWlLk6GJQsqaUBKTNV-1">
          <mxGeometry x="780" y="240" width="160" height="60" as="geometry" />
        </mxCell>
        <mxCell id="KfuObsglH7F92j2FWpLT-34" value="- verifyInfo(): boolean" style="text;strokeColor=none;fillColor=none;align=left;verticalAlign=top;spacingLeft=4;spacingRight=4;overflow=hidden;rotatable=0;points=[[0,0.5],[1,0.5]];portConstraint=eastwest;whiteSpace=wrap;html=1;" vertex="1" parent="KfuObsglH7F92j2FWpLT-33">
          <mxGeometry y="26" width="160" height="34" as="geometry" />
        </mxCell>
        <mxCell id="KfuObsglH7F92j2FWpLT-37" value="Credit" style="swimlane;fontStyle=1;align=center;verticalAlign=top;childLayout=stackLayout;horizontal=1;startSize=26;horizontalStack=0;resizeParent=1;resizeParentMax=0;resizeLast=0;collapsible=1;marginBottom=0;whiteSpace=wrap;html=1;" vertex="1" parent="WIyWlLk6GJQsqaUBKTNV-1">
          <mxGeometry x="710" width="160" height="80" as="geometry" />
        </mxCell>
        <mxCell id="KfuObsglH7F92j2FWpLT-39" value="" style="line;strokeWidth=1;fillColor=none;align=left;verticalAlign=middle;spacingTop=-1;spacingLeft=3;spacingRight=3;rotatable=0;labelPosition=right;points=[];portConstraint=eastwest;strokeColor=inherit;" vertex="1" parent="KfuObsglH7F92j2FWpLT-37">
          <mxGeometry y="26" width="160" height="8" as="geometry" />
        </mxCell>
        <mxCell id="KfuObsglH7F92j2FWpLT-40" value="+ directedBank(): void&lt;br&gt;+ verifyCard(): boolean" style="text;strokeColor=none;fillColor=none;align=left;verticalAlign=top;spacingLeft=4;spacingRight=4;overflow=hidden;rotatable=0;points=[[0,0.5],[1,0.5]];portConstraint=eastwest;whiteSpace=wrap;html=1;" vertex="1" parent="KfuObsglH7F92j2FWpLT-37">
          <mxGeometry y="34" width="160" height="46" as="geometry" />
        </mxCell>
        <mxCell id="KfuObsglH7F92j2FWpLT-41" value="bank" style="swimlane;fontStyle=1;align=center;verticalAlign=top;childLayout=stackLayout;horizontal=1;startSize=26;horizontalStack=0;resizeParent=1;resizeParentMax=0;resizeLast=0;collapsible=1;marginBottom=0;whiteSpace=wrap;html=1;" vertex="1" parent="WIyWlLk6GJQsqaUBKTNV-1">
          <mxGeometry x="980" y="80" width="160" height="110" as="geometry" />
        </mxCell>
        <mxCell id="KfuObsglH7F92j2FWpLT-42" value="- idCard: String&lt;br&gt;- transactionAm: double" style="text;strokeColor=none;fillColor=none;align=left;verticalAlign=top;spacingLeft=4;spacingRight=4;overflow=hidden;rotatable=0;points=[[0,0.5],[1,0.5]];portConstraint=eastwest;whiteSpace=wrap;html=1;" vertex="1" parent="KfuObsglH7F92j2FWpLT-41">
          <mxGeometry y="26" width="160" height="34" as="geometry" />
        </mxCell>
        <mxCell id="KfuObsglH7F92j2FWpLT-43" value="" style="line;strokeWidth=1;fillColor=none;align=left;verticalAlign=middle;spacingTop=-1;spacingLeft=3;spacingRight=3;rotatable=0;labelPosition=right;points=[];portConstraint=eastwest;strokeColor=inherit;" vertex="1" parent="KfuObsglH7F92j2FWpLT-41">
          <mxGeometry y="60" width="160" height="8" as="geometry" />
        </mxCell>
        <mxCell id="KfuObsglH7F92j2FWpLT-44" value="+ openCon(): void&lt;br&gt;+ closeCon(): void" style="text;strokeColor=none;fillColor=none;align=left;verticalAlign=top;spacingLeft=4;spacingRight=4;overflow=hidden;rotatable=0;points=[[0,0.5],[1,0.5]];portConstraint=eastwest;whiteSpace=wrap;html=1;" vertex="1" parent="KfuObsglH7F92j2FWpLT-41">
          <mxGeometry y="68" width="160" height="42" as="geometry" />
        </mxCell>
        <mxCell id="KfuObsglH7F92j2FWpLT-45" value="digitalWallet" style="swimlane;fontStyle=1;align=center;verticalAlign=top;childLayout=stackLayout;horizontal=1;startSize=26;horizontalStack=0;resizeParent=1;resizeParentMax=0;resizeLast=0;collapsible=1;marginBottom=0;whiteSpace=wrap;html=1;" vertex="1" parent="WIyWlLk6GJQsqaUBKTNV-1">
          <mxGeometry x="980" y="280" width="160" height="110" as="geometry" />
        </mxCell>
        <mxCell id="KfuObsglH7F92j2FWpLT-46" value="- systemID: String&lt;br&gt;- systemName: String" style="text;strokeColor=none;fillColor=none;align=left;verticalAlign=top;spacingLeft=4;spacingRight=4;overflow=hidden;rotatable=0;points=[[0,0.5],[1,0.5]];portConstraint=eastwest;whiteSpace=wrap;html=1;" vertex="1" parent="KfuObsglH7F92j2FWpLT-45">
          <mxGeometry y="26" width="160" height="34" as="geometry" />
        </mxCell>
        <mxCell id="KfuObsglH7F92j2FWpLT-47" value="" style="line;strokeWidth=1;fillColor=none;align=left;verticalAlign=middle;spacingTop=-1;spacingLeft=3;spacingRight=3;rotatable=0;labelPosition=right;points=[];portConstraint=eastwest;strokeColor=inherit;" vertex="1" parent="KfuObsglH7F92j2FWpLT-45">
          <mxGeometry y="60" width="160" height="8" as="geometry" />
        </mxCell>
        <mxCell id="KfuObsglH7F92j2FWpLT-48" value="+ userName(): String&lt;br&gt;+ transactionAm(): double" style="text;strokeColor=none;fillColor=none;align=left;verticalAlign=top;spacingLeft=4;spacingRight=4;overflow=hidden;rotatable=0;points=[[0,0.5],[1,0.5]];portConstraint=eastwest;whiteSpace=wrap;html=1;" vertex="1" parent="KfuObsglH7F92j2FWpLT-45">
          <mxGeometry y="68" width="160" height="42" as="geometry" />
        </mxCell>
        <mxCell id="KfuObsglH7F92j2FWpLT-49" value="" style="endArrow=diamondThin;endFill=1;endSize=24;html=1;rounded=0;entryX=0.51;entryY=1.018;entryDx=0;entryDy=0;entryPerimeter=0;exitX=0.5;exitY=0;exitDx=0;exitDy=0;" edge="1" parent="WIyWlLk6GJQsqaUBKTNV-1" source="KfuObsglH7F92j2FWpLT-20" target="KfuObsglH7F92j2FWpLT-4">
          <mxGeometry width="160" relative="1" as="geometry">
            <mxPoint x="270" y="142" as="sourcePoint" />
            <mxPoint x="379" y="171" as="targetPoint" />
          </mxGeometry>
        </mxCell>
        <mxCell id="KfuObsglH7F92j2FWpLT-50" value="" style="endArrow=diamondThin;endFill=1;endSize=24;html=1;rounded=0;entryX=1;entryY=0.5;entryDx=0;entryDy=0;exitX=0;exitY=0.5;exitDx=0;exitDy=0;" edge="1" parent="WIyWlLk6GJQsqaUBKTNV-1" source="KfuObsglH7F92j2FWpLT-30" target="KfuObsglH7F92j2FWpLT-4">
          <mxGeometry width="160" relative="1" as="geometry">
            <mxPoint x="460" y="340" as="sourcePoint" />
            <mxPoint x="462" y="293" as="targetPoint" />
          </mxGeometry>
        </mxCell>
        <mxCell id="KfuObsglH7F92j2FWpLT-51" value="" style="endArrow=diamondThin;endFill=1;endSize=24;html=1;rounded=0;entryX=1.032;entryY=-0.058;entryDx=0;entryDy=0;exitX=0;exitY=1;exitDx=0;exitDy=0;entryPerimeter=0;exitPerimeter=0;" edge="1" parent="WIyWlLk6GJQsqaUBKTNV-1" source="KfuObsglH7F92j2FWpLT-46" target="KfuObsglH7F92j2FWpLT-34">
          <mxGeometry width="160" relative="1" as="geometry">
            <mxPoint x="590" y="193" as="sourcePoint" />
            <mxPoint x="540" y="210" as="targetPoint" />
          </mxGeometry>
        </mxCell>
        <mxCell id="KfuObsglH7F92j2FWpLT-53" value="" style="endArrow=diamondThin;endFill=1;endSize=24;html=1;rounded=0;entryX=0.999;entryY=0.152;entryDx=0;entryDy=0;exitX=-0.022;exitY=0.848;exitDx=0;exitDy=0;entryPerimeter=0;exitPerimeter=0;" edge="1" parent="WIyWlLk6GJQsqaUBKTNV-1" source="KfuObsglH7F92j2FWpLT-42" target="KfuObsglH7F92j2FWpLT-40">
          <mxGeometry width="160" relative="1" as="geometry">
            <mxPoint x="990" y="350" as="sourcePoint" />
            <mxPoint x="955" y="274" as="targetPoint" />
          </mxGeometry>
        </mxCell>
        <mxCell id="KfuObsglH7F92j2FWpLT-54" value="" style="endArrow=diamondThin;endFill=0;endSize=24;html=1;rounded=0;entryX=1;entryY=0.5;entryDx=0;entryDy=0;exitX=-0.017;exitY=0.321;exitDx=0;exitDy=0;exitPerimeter=0;" edge="1" parent="WIyWlLk6GJQsqaUBKTNV-1" source="KfuObsglH7F92j2FWpLT-26" target="KfuObsglH7F92j2FWpLT-21">
          <mxGeometry width="160" relative="1" as="geometry">
            <mxPoint x="270" y="375" as="sourcePoint" />
            <mxPoint x="380" y="383" as="targetPoint" />
          </mxGeometry>
        </mxCell>
        <mxCell id="KfuObsglH7F92j2FWpLT-55" value="" style="endArrow=diamondThin;endFill=0;endSize=24;html=1;rounded=0;exitX=0.517;exitY=1.108;exitDx=0;exitDy=0;exitPerimeter=0;entryX=0.5;entryY=0;entryDx=0;entryDy=0;" edge="1" parent="WIyWlLk6GJQsqaUBKTNV-1" source="KfuObsglH7F92j2FWpLT-40" target="KfuObsglH7F92j2FWpLT-29">
          <mxGeometry width="160" relative="1" as="geometry">
            <mxPoint x="587" y="390" as="sourcePoint" />
            <mxPoint x="540" y="383" as="targetPoint" />
          </mxGeometry>
        </mxCell>
        <mxCell id="KfuObsglH7F92j2FWpLT-56" value="" style="endArrow=diamondThin;endFill=0;endSize=24;html=1;rounded=0;exitX=0.5;exitY=0;exitDx=0;exitDy=0;entryX=1;entryY=0.5;entryDx=0;entryDy=0;" edge="1" parent="WIyWlLk6GJQsqaUBKTNV-1" source="KfuObsglH7F92j2FWpLT-33" target="KfuObsglH7F92j2FWpLT-30">
          <mxGeometry width="160" relative="1" as="geometry">
            <mxPoint x="803" y="95" as="sourcePoint" />
            <mxPoint x="670" y="150" as="targetPoint" />
          </mxGeometry>
        </mxCell>
      </root>
    </mxGraphModel>
  </diagram>
</mxfile>
